<svg width="512" height="512" viewBox="0 0 512 512" fill="none" xmlns="http://www.w3.org/2000/svg">
  <rect x="0" y="0" width="512" height="512" rx="128" fill="#2563EB"/>
  
  <path d="M0 128C0 57.3071 57.3071 0 128 0H384C454.693 0 512 57.3071 512 128V384C512 454.693 454.693 512 384 512H128C57.3071 512 0 454.693 0 384V128Z" fill="url(#paint0_linear)" fill-opacity="0.1"/>
  
  <rect x="136" y="116" width="240" height="280" rx="32" fill="white"/>
  
  <rect x="168" y="148" width="176" height="64" rx="12" fill="#EFF6FF"/>
  <rect x="184" y="168" width="100" height="24" rx="6" fill="#BFDBFE"/>
  
  <rect x="168" y="244" width="48" height="48" rx="12" fill="#DBEAFE"/>
  <rect x="232" y="244" width="48" height="48" rx="12" fill="#DBEAFE"/>
  <rect x="296" y="244" width="48" height="48" rx="12" fill="#DBEAFE"/>
  
  <rect x="168" y="308" width="48" height="48" rx="12" fill="#DBEAFE"/>
  <rect x="232" y="308" width="48" height="48" rx="12" fill="#DBEAFE"/>
  <rect x="296" y="308" width="48" height="48" rx="12" fill="#2563EB"/> <defs>
    <linearGradient id="paint0_linear" x1="0" y1="0" x2="512" y2="512" gradientUnits="userSpaceOnUse">
      <stop stop-color="white" stop-opacity="0.2"/>
      <stop offset="1" stop-color="black" stop-opacity="0.1"/>
    </linearGradient>
  </defs>
</svg>